<svg xmlns="http://www.w3.org/2000/svg" fill="currentColor"><path fill="currentColor" fill-rule="evenodd" d="M11.0321 18c-3.35751 0-5.22567-1.7684-5.22567-5v-1H16.1158l.0276.9715C16.2358 16.2145 14.4003 18 11.0321 18zm3.0554-4c-.2349 1.3955-1.1786 2-3.0554 2-1.87583 0-2.85031-.6098-3.13533-2h6.19073z" clip-rule="evenodd"/><path fill="currentColor" d="M13 7h3v2h-3V7z"/><path fill="currentColor" d="M9 7H6v2h3V7z"/><path fill="currentColor" fill-rule="evenodd" d="M0 11c0 6.0751 4.92487 11 11 11 6.0751 0 11-4.9249 11-11 0-6.07513-4.9249-11-11-11C4.92487 0 0 4.92487 0 11zm20 0c0 4.9706-4.0294 9-9 9-4.97056 0-9-4.0294-9-9 0-4.97056 4.02944-9 9-9 4.9706 0 9 4.02944 9 9z" clip-rule="evenodd"/></svg>