 <svg xmlns="http://www.w3.org/2000/svg" fill="#fff">
                    <path
                        fill="url(#blue__logo-1)"
                        d="M70 0v.6c-.025.096-.066.191-.073.288-.213 2.65-.423 5.3-.632 7.95l-.84 10.73c-.312 3.934-.627 7.866-.947 11.798-.294 3.69-.588 7.38-.88 11.071-.069.846-.082.833-.975.964-4.763.704-9.525 1.41-14.287 2.121-.73.108-1.463.209-2.238.32l-1.533-30.719-.475.088-1.617 31.177-17.414 2.588-3.43-42.242 11.034-1.638 1.446 30.73c.342.048.493-.045.511-.378.112-2.126.242-4.253.365-6.379l.568-9.76c.228-3.868.457-7.735.687-11.602.063-1.05.13-2.101.195-3.173L55.2 2.197l1.844 30.695.476-.065 1.446-31.19L70 0z"
                    ></path>
                    <path
                        fill="url(#blue__logo-2)"
                        d="M23.725 22.66l-10.903 1.62v-.465-5.232c0-.172.008-.345-.017-.514-.05-.339-.15-.675-.571-.72-.418-.043-.784.114-.944.503a2.279 2.279 0 0 0-.158.833c-.014 1.558.014 3.117-.014 4.674-.018.963.42 1.653 1.307 2.002.734.289 1.525.464 2.306.619 1.737.344 3.427.813 5.08 1.44 2.101.798 3.27 2.31 3.8 4.336.17.651.261 1.32.272 1.991.032 2.244.052 4.49.001 6.733-.056 2.464-.659 4.782-2.287 6.765-1.492 1.816-3.492 2.908-5.737 3.615-2.68.843-5.437 1.273-8.26 1.105a11.479 11.479 0 0 1-2.833-.526c-2.553-.83-3.864-2.702-4.348-5.154a15.573 15.573 0 0 1-.271-2.68c-.04-1.944-.014-3.89-.014-5.833 0-.113.01-.226.018-.37l10.868-1.615v5.639c0 .172 0 .343.01.515.019.353.129.651.537.743.386.087.85-.115.99-.488.103-.275.15-.583.153-.877.015-1.544-.004-3.088.011-4.632.01-.918-.386-1.618-1.27-1.926-1.028-.359-2.096-.627-3.162-.871-1.478-.34-2.928-.733-4.326-1.32C1.798 31.66.71 29.99.23 27.865c-.071-.32-.13-.65-.13-.976-.02-3.141-.308-6.294.196-9.417.613-3.798 2.915-6.373 6.58-7.81 3.228-1.267 6.602-1.799 10.09-1.504 3.687.312 6.077 2.519 6.563 6.082.15 1.1.168 2.22.188 3.333.03 1.685.008 3.37.008 5.086z"
                    ></path>
                    <defs>
                        <linearGradient
                            id="blue__logo-1"
                            x1="1.577"
                            x2="18.142"
                            y1="-1.762"
                            y2="57.179"
                            gradientUnits="userSpaceOnUse"
                        >
                            <stop stop-color="#fff"></stop>
                            <stop offset="1" stop-color="#fff"></stop>
                        </linearGradient>
                        <linearGradient
                            id="blue__logo-2"
                            x1="-12.174"
                            x2="10.013"
                            y1="6.5"
                            y2="52.931"
                            gradientUnits="userSpaceOnUse"
                        >
                            <stop stop-color="#fff"></stop>
                            <stop offset="1" stop-color="#fff"></stop>
                        </linearGradient>
                    </defs>
                </svg>